<svg viewBox="0 0 180 180" fill="none" xmlns="http://www.w3.org/2000/svg">
  <rect width="180" height="180" rx="37" fill="#37003C"/>
  <path
    d="M90 28L148 48V98C148 128.5 122.5 152.5 90 158C57.5 152.5 32 128.5 32 98V48L90 28Z"
    fill="#4a0058"
    stroke="#ffffff"
    stroke-width="3"
  />
  <circle cx="68" cy="68" r="5" fill="#ffffff"/>
  <circle cx="90" cy="58" r="5" fill="#ffffff"/>
  <circle cx="112" cy="68" r="5" fill="#ffffff"/>
  <path d="M58 88H118L112 98H66L62 108H106L100 118H54L58 88Z" fill="#E10600"/>
  <path d="M116 88L132 128H120L104 88H116Z" fill="#E10600"/>
  <circle cx="90" cy="122" r="6" fill="#ffffff"/>
  <path d="M82 132C82 132 86 138 90 138C94 138 98 132 98 132" stroke="#ffffff" stroke-width="4" stroke-linecap="round"/>
  <text x="90" y="168" text-anchor="middle" fill="#ffffff" font-family="Arial, sans-serif" font-size="22" font-weight="700" letter-spacing="1">FORMA</text>
</svg>
